<svg xmlns="http://www.w3.org/2000/svg" width="240" height="415"><rect x="0" y="0" width="100%" height="100%" fill="rgb(157,50,68)"></rect><polyline points="40,0,80,69.28203230275508,0,69.28203230275508,40,0" fill="#222" fill-opacity="0.15" stroke="#000" stroke-opacity="0.02" transform="translate(-40,0) rotate(180,40,34.64101615137754)"></polyline><polyline points="40,0,80,69.28203230275508,0,69.28203230275508,40,0" fill="#222" fill-opacity="0.15" stroke="#000" stroke-opacity="0.02" transform="translate(200,0) rotate(180,40,34.64101615137754)"></polyline><polyline points="40,0,80,69.28203230275508,0,69.28203230275508,40,0" fill="#222" fill-opacity="0.06333333333333334" stroke="#000" stroke-opacity="0.02" transform="translate(0,0) rotate(0,40,34.64101615137754)"></polyline><polyline points="40,0,80,69.28203230275508,0,69.28203230275508,40,0" fill="#222" fill-opacity="0.15" stroke="#000" stroke-opacity="0.02" transform="translate(40,0) rotate(180,40,34.64101615137754)"></polyline><polyline points="40,0,80,69.28203230275508,0,69.28203230275508,40,0" fill="#222" fill-opacity="0.13266666666666665" stroke="#000" stroke-opacity="0.02" transform="translate(80,0) rotate(0,40,34.64101615137754)"></polyline><polyline points="40,0,80,69.28203230275508,0,69.28203230275508,40,0" fill="#222" fill-opacity="0.046" stroke="#000" stroke-opacity="0.02" transform="translate(120,0) rotate(180,40,34.64101615137754)"></polyline><polyline points="40,0,80,69.28203230275508,0,69.28203230275508,40,0" fill="#222" fill-opacity="0.08066666666666666" stroke="#000" stroke-opacity="0.02" transform="translate(160,0) rotate(0,40,34.64101615137754)"></polyline><polyline points="40,0,80,69.28203230275508,0,69.28203230275508,40,0" fill="#ddd" fill-opacity="0.02" stroke="#000" stroke-opacity="0.02" transform="translate(-40,69.28203230275508) rotate(0,40,34.64101615137754)"></polyline><polyline points="40,0,80,69.28203230275508,0,69.28203230275508,40,0" fill="#ddd" fill-opacity="0.02" stroke="#000" stroke-opacity="0.02" transform="translate(200,69.28203230275508) rotate(0,40,34.64101615137754)"></polyline><polyline points="40,0,80,69.28203230275508,0,69.28203230275508,40,0" fill="#ddd" fill-opacity="0.05466666666666667" stroke="#000" stroke-opacity="0.02" transform="translate(0,69.28203230275508) rotate(180,40,34.64101615137754)"></polyline><polyline points="40,0,80,69.28203230275508,0,69.28203230275508,40,0" fill="#ddd" fill-opacity="0.05466666666666667" stroke="#000" stroke-opacity="0.02" transform="translate(40,69.28203230275508) rotate(0,40,34.64101615137754)"></polyline><polyline points="40,0,80,69.28203230275508,0,69.28203230275508,40,0" fill="#ddd" fill-opacity="0.14133333333333334" stroke="#000" stroke-opacity="0.02" transform="translate(80,69.28203230275508) rotate(180,40,34.64101615137754)"></polyline><polyline points="40,0,80,69.28203230275508,0,69.28203230275508,40,0" fill="#222" fill-opacity="0.15" stroke="#000" stroke-opacity="0.02" transform="translate(120,69.28203230275508) rotate(0,40,34.64101615137754)"></polyline><polyline points="40,0,80,69.28203230275508,0,69.28203230275508,40,0" fill="#222" fill-opacity="0.11533333333333334" stroke="#000" stroke-opacity="0.02" transform="translate(160,69.28203230275508) rotate(180,40,34.64101615137754)"></polyline><polyline points="40,0,80,69.28203230275508,0,69.28203230275508,40,0" fill="#ddd" fill-opacity="0.03733333333333333" stroke="#000" stroke-opacity="0.02" transform="translate(-40,138.56406460551017) rotate(180,40,34.64101615137754)"></polyline><polyline points="40,0,80,69.28203230275508,0,69.28203230275508,40,0" fill="#ddd" fill-opacity="0.03733333333333333" stroke="#000" stroke-opacity="0.02" transform="translate(200,138.56406460551017) rotate(180,40,34.64101615137754)"></polyline><polyline points="40,0,80,69.28203230275508,0,69.28203230275508,40,0" fill="#ddd" fill-opacity="0.03733333333333333" stroke="#000" stroke-opacity="0.02" transform="translate(0,138.56406460551017) rotate(0,40,34.64101615137754)"></polyline><polyline points="40,0,80,69.28203230275508,0,69.28203230275508,40,0" fill="#ddd" fill-opacity="0.02" stroke="#000" stroke-opacity="0.02" transform="translate(40,138.56406460551017) rotate(180,40,34.64101615137754)"></polyline><polyline points="40,0,80,69.28203230275508,0,69.28203230275508,40,0" fill="#222" fill-opacity="0.08066666666666666" stroke="#000" stroke-opacity="0.02" transform="translate(80,138.56406460551017) rotate(0,40,34.64101615137754)"></polyline><polyline points="40,0,80,69.28203230275508,0,69.28203230275508,40,0" fill="#222" fill-opacity="0.06333333333333334" stroke="#000" stroke-opacity="0.02" transform="translate(120,138.56406460551017) rotate(180,40,34.64101615137754)"></polyline><polyline points="40,0,80,69.28203230275508,0,69.28203230275508,40,0" fill="#ddd" fill-opacity="0.10666666666666667" stroke="#000" stroke-opacity="0.02" transform="translate(160,138.56406460551017) rotate(0,40,34.64101615137754)"></polyline><polyline points="40,0,80,69.28203230275508,0,69.28203230275508,40,0" fill="#222" fill-opacity="0.08066666666666666" stroke="#000" stroke-opacity="0.02" transform="translate(-40,207.84609690826525) rotate(0,40,34.64101615137754)"></polyline><polyline points="40,0,80,69.28203230275508,0,69.28203230275508,40,0" fill="#222" fill-opacity="0.08066666666666666" stroke="#000" stroke-opacity="0.02" transform="translate(200,207.84609690826525) rotate(0,40,34.64101615137754)"></polyline><polyline points="40,0,80,69.28203230275508,0,69.28203230275508,40,0" fill="#222" fill-opacity="0.028666666666666667" stroke="#000" stroke-opacity="0.02" transform="translate(0,207.84609690826525) rotate(180,40,34.64101615137754)"></polyline><polyline points="40,0,80,69.28203230275508,0,69.28203230275508,40,0" fill="#ddd" fill-opacity="0.08933333333333333" stroke="#000" stroke-opacity="0.02" transform="translate(40,207.84609690826525) rotate(0,40,34.64101615137754)"></polyline><polyline points="40,0,80,69.28203230275508,0,69.28203230275508,40,0" fill="#ddd" fill-opacity="0.07200000000000001" stroke="#000" stroke-opacity="0.02" transform="translate(80,207.84609690826525) rotate(180,40,34.64101615137754)"></polyline><polyline points="40,0,80,69.28203230275508,0,69.28203230275508,40,0" fill="#222" fill-opacity="0.046" stroke="#000" stroke-opacity="0.02" transform="translate(120,207.84609690826525) rotate(0,40,34.64101615137754)"></polyline><polyline points="40,0,80,69.28203230275508,0,69.28203230275508,40,0" fill="#222" fill-opacity="0.15" stroke="#000" stroke-opacity="0.02" transform="translate(160,207.84609690826525) rotate(180,40,34.64101615137754)"></polyline><polyline points="40,0,80,69.28203230275508,0,69.28203230275508,40,0" fill="#ddd" fill-opacity="0.03733333333333333" stroke="#000" stroke-opacity="0.02" transform="translate(-40,277.12812921102034) rotate(180,40,34.64101615137754)"></polyline><polyline points="40,0,80,69.28203230275508,0,69.28203230275508,40,0" fill="#ddd" fill-opacity="0.03733333333333333" stroke="#000" stroke-opacity="0.02" transform="translate(200,277.12812921102034) rotate(180,40,34.64101615137754)"></polyline><polyline points="40,0,80,69.28203230275508,0,69.28203230275508,40,0" fill="#222" fill-opacity="0.028666666666666667" stroke="#000" stroke-opacity="0.02" transform="translate(0,277.12812921102034) rotate(0,40,34.64101615137754)"></polyline><polyline points="40,0,80,69.28203230275508,0,69.28203230275508,40,0" fill="#222" fill-opacity="0.046" stroke="#000" stroke-opacity="0.02" transform="translate(40,277.12812921102034) rotate(180,40,34.64101615137754)"></polyline><polyline points="40,0,80,69.28203230275508,0,69.28203230275508,40,0" fill="#222" fill-opacity="0.13266666666666665" stroke="#000" stroke-opacity="0.02" transform="translate(80,277.12812921102034) rotate(0,40,34.64101615137754)"></polyline><polyline points="40,0,80,69.28203230275508,0,69.28203230275508,40,0" fill="#ddd" fill-opacity="0.02" stroke="#000" stroke-opacity="0.02" transform="translate(120,277.12812921102034) rotate(180,40,34.64101615137754)"></polyline><polyline points="40,0,80,69.28203230275508,0,69.28203230275508,40,0" fill="#ddd" fill-opacity="0.02" stroke="#000" stroke-opacity="0.02" transform="translate(160,277.12812921102034) rotate(0,40,34.64101615137754)"></polyline><polyline points="40,0,80,69.28203230275508,0,69.28203230275508,40,0" fill="#222" fill-opacity="0.08066666666666666" stroke="#000" stroke-opacity="0.02" transform="translate(-40,346.4101615137754) rotate(0,40,34.64101615137754)"></polyline><polyline points="40,0,80,69.28203230275508,0,69.28203230275508,40,0" fill="#222" fill-opacity="0.08066666666666666" stroke="#000" stroke-opacity="0.02" transform="translate(200,346.4101615137754) rotate(0,40,34.64101615137754)"></polyline><polyline points="40,0,80,69.28203230275508,0,69.28203230275508,40,0" fill="#ddd" fill-opacity="0.02" stroke="#000" stroke-opacity="0.02" transform="translate(0,346.4101615137754) rotate(180,40,34.64101615137754)"></polyline><polyline points="40,0,80,69.28203230275508,0,69.28203230275508,40,0" fill="#222" fill-opacity="0.08066666666666666" stroke="#000" stroke-opacity="0.02" transform="translate(40,346.4101615137754) rotate(0,40,34.64101615137754)"></polyline><polyline points="40,0,80,69.28203230275508,0,69.28203230275508,40,0" fill="#ddd" fill-opacity="0.14133333333333334" stroke="#000" stroke-opacity="0.02" transform="translate(80,346.4101615137754) rotate(180,40,34.64101615137754)"></polyline><polyline points="40,0,80,69.28203230275508,0,69.28203230275508,40,0" fill="#ddd" fill-opacity="0.05466666666666667" stroke="#000" stroke-opacity="0.02" transform="translate(120,346.4101615137754) rotate(0,40,34.64101615137754)"></polyline><polyline points="40,0,80,69.28203230275508,0,69.28203230275508,40,0" fill="#222" fill-opacity="0.098" stroke="#000" stroke-opacity="0.02" transform="translate(160,346.4101615137754) rotate(180,40,34.64101615137754)"></polyline></svg>