<?xml version="1.0" standalone="no"?>
<!DOCTYPE svg PUBLIC "-//W3C//DTD SVG 20010904//EN"
 "http://www.w3.org/TR/2001/REC-SVG-20010904/DTD/svg10.dtd">
<svg version="1.0" xmlns="http://www.w3.org/2000/svg"
 width="512.000000pt" height="512.000000pt" viewBox="0 0 512.000000 512.000000"
 preserveAspectRatio="xMidYMid meet">
<metadata>
Created by potrace 1.11, written by Peter Selinger 2001-2013
</metadata>
<g transform="translate(0.000000,512.000000) scale(0.100000,-0.100000)"
fill="#000000" stroke="none">
<path d="M1207 4175 l-267 -535 270 0 270 0 0 535 c0 294 -1 535 -3 535 -1 0
-122 -241 -270 -535z"/>
<path d="M2288 4175 l-268 -535 -270 0 -270 0 -270 -540 -270 -540 -268 -1
-267 0 538 -270 537 -269 0 -270 0 -270 540 -270 540 -270 1 -268 0 -267 270
538 269 537 270 0 270 0 270 540 270 540 268 1 267 0 -537 270 -538 269 0 270
0 270 -540 270 -540 270 -2 265 -3 265 -267 -535z m725 -1388 l452 -226 -225
-1 -226 0 -226 -452 -227 -453 -1 226 0 225 -452 227 -453 226 225 1 226 0
224 448 225 447 3 -221 2 -220 453 -227z"/>
<path d="M3640 3910 l0 -270 537 0 c295 0 534 2 532 4 -2 2 -244 124 -536 270
l-533 266 0 -270z"/>
<path d="M411 1476 c2 -2 244 -124 537 -270 l532 -266 0 270 0 270 -537 0
c-295 0 -534 -2 -532 -4z"/>
<path d="M3640 943 c0 -295 2 -534 4 -532 2 2 124 244 270 537 l266 532 -270
0 -270 0 0 -537z"/>
</g>
</svg>
