<?xml version="1.0" standalone="no"?>
<!DOCTYPE svg PUBLIC "-//W3C//DTD SVG 20010904//EN"
 "http://www.w3.org/TR/2001/REC-SVG-20010904/DTD/svg10.dtd">
<svg version="1.0" xmlns="http://www.w3.org/2000/svg"
 width="180.000000pt" height="180.000000pt" viewBox="0 0 180.000000 180.000000"
 preserveAspectRatio="xMidYMid meet">
<metadata>
Created by potrace 1.11, written by Peter Selinger 2001-2013
</metadata>
<g transform="translate(0.000000,180.000000) scale(0.100000,-0.100000)"
fill="#000000" stroke="none">
<path d="M515 1761 c-44 -22 -90 -50 -103 -64 l-23 -25 -57 29 c-118 60 -250
76 -302 37 -43 -31 -40 -51 4 -33 18 8 36 11 40 8 3 -4 6 -1 6 5 0 37 142 17
245 -35 l55 -28 -50 -75 c-49 -74 -77 -136 -67 -147 3 -3 13 11 21 31 21 51
96 153 153 208 38 37 68 54 148 84 55 20 102 38 104 40 2 2 -18 4 -45 4 -37 0
-69 -10 -129 -39z"/>
<path d="M1230 1785 c170 -48 342 -144 433 -240 37 -40 102 -175 120 -250 l15
-60 1 42 c1 52 -45 173 -97 251 -41 63 -105 115 -202 166 -105 55 -239 106
-279 105 l-36 -1 45 -13z"/>
<path d="M750 1665 l-25 -14 40 -16 c22 -9 50 -21 63 -28 22 -10 22 -12 6 -24
-25 -18 -31 -17 -102 17 -35 17 -70 30 -78 30 -28 0 -13 -30 24 -49 34 -19 35
-21 15 -27 -39 -11 -35 -33 13 -67 26 -18 53 -37 62 -43 12 -9 9 -14 -19 -34
-19 -13 -49 -37 -66 -53 -27 -26 -43 -31 -93 -35 -71 -5 -78 -17 -15 -25 26
-2 48 -7 50 -9 3 -2 -13 -38 -35 -80 -36 -69 -73 -198 -67 -238 1 -8 -2 -71
-6 -140 -4 -71 -3 -157 2 -200 5 -41 17 -129 25 -195 21 -171 107 -435 141
-435 13 0 12 7 -6 42 -12 24 -32 73 -45 110 l-23 68 67 -34 c37 -18 108 -48
157 -66 98 -36 115 -50 115 -92 0 -15 5 -28 10 -28 6 0 8 11 6 23 -7 42 6 51
60 39 125 -28 135 -27 241 21 55 25 112 49 126 52 l27 7 0 -71 c0 -41 4 -71
10 -71 6 0 10 33 10 79 0 75 1 79 24 85 29 7 122 69 157 105 14 14 37 46 51
71 29 50 51 147 36 156 -6 4 -8 18 -5 33 3 14 1 45 -5 69 -9 38 -7 50 20 115
45 105 68 202 54 233 -7 13 -15 24 -19 24 -5 0 -7 33 -5 72 4 79 -17 195 -44
255 -57 123 -175 258 -235 270 -33 6 -33 7 -19 34 17 30 -8 24 -38 -11 -33
-38 -49 -39 -23 -2 18 25 41 84 28 72 -3 -3 -26 -32 -52 -65 -72 -93 -215
-204 -215 -166 0 5 -35 35 -77 66 -43 32 -82 62 -87 66 -6 5 22 23 65 43 41
19 66 35 57 35 -20 1 -81 -25 -120 -51 -25 -17 -47 -10 -34 11 3 5 0 13 -7 18
-18 15 -57 22 -57 11 0 -5 -24 4 -54 21 -62 36 -54 34 -86 16z m137 -89 c-25
-17 -48 -39 -50 -49 -5 -16 -8 -16 -26 -5 -24 14 -27 28 -8 28 7 0 35 15 62
33 28 19 54 32 58 29 5 -2 -11 -18 -36 -36z m-132 -14 c-3 -3 -11 0 -18 7 -9
10 -8 11 6 5 10 -3 15 -9 12 -12z m165 -6 c0 -2 -9 -6 -20 -9 -11 -3 -18 -1
-14 4 5 9 34 13 34 5z m571 -24 c134 -86 226 -271 231 -468 3 -98 7 -93 -61
-78 l-24 5 22 15 c27 19 28 39 1 24 -27 -14 -90 1 -131 33 -20 15 -53 28 -80
31 -44 5 -49 3 -85 -33 -60 -60 -84 -89 -94 -115 -8 -22 -12 -23 -47 -15 -21
5 -54 9 -74 9 -32 0 -36 3 -45 37 -7 29 -16 39 -41 47 -18 6 -40 21 -48 34
-15 20 -15 23 -1 27 47 15 51 19 21 22 -46 5 -117 24 -150 41 -46 23 -87 16
-173 -27 -53 -27 -93 -56 -121 -88 l-42 -47 7 54 c4 30 18 83 31 116 20 51 32
67 71 91 68 44 96 47 177 19 65 -22 87 -25 72 -10 -4 4 -30 15 -59 25 l-52 17
50 7 c27 4 54 7 59 8 15 1 65 -25 65 -34 0 -5 -11 -11 -25 -15 -14 -3 -25 -12
-25 -20 0 -17 4 -17 53 -3 44 12 46 22 10 55 -14 13 -24 25 -22 27 2 2 36 11
74 21 140 35 258 95 344 173 25 23 51 42 57 43 5 0 30 -13 55 -28z m-595 -5
c32 15 51 9 101 -29 73 -55 119 -106 102 -112 -8 -2 -29 -9 -47 -15 -30 -9
-33 -8 -46 18 -17 32 -86 97 -122 113 -13 6 -24 18 -24 27 0 13 2 13 9 2 6 -9
14 -10 27 -4z m58 -110 c27 -26 46 -50 43 -53 -5 -5 -137 125 -137 135 0 6 39
-27 94 -82z m-57 17 c18 -14 40 -38 48 -54 15 -28 14 -30 -7 -34 -13 -3 -75
-8 -138 -11 l-115 -6 50 46 c28 24 60 45 72 45 13 0 28 9 35 20 16 25 14 25
55 -6z m-218 -147 c-2 -1 -12 -9 -22 -16 -15 -12 -17 -12 -11 3 3 9 13 16 22
16 8 0 13 -1 11 -3z m251 -217 c16 -12 30 -24 30 -27 0 -3 -6 0 -13 6 -16 13
-199 19 -242 8 -26 -6 -27 -6 -11 4 11 7 49 20 85 29 72 18 103 14 151 -20z
m544 -36 c35 -13 13 -24 -46 -23 -62 1 -62 1 -33 14 33 16 55 18 79 9z m-595
-71 c38 -46 61 -112 61 -174 0 -43 -18 -78 -33 -63 -3 3 -16 0 -28 -7 -23 -12
-23 -11 -8 12 58 90 5 224 -79 200 -23 -7 -34 -6 -43 5 -6 8 -20 14 -30 14
-11 0 -19 4 -19 9 0 17 26 30 70 34 25 2 53 4 62 5 9 1 30 -15 47 -35z m139
-2 c40 -22 43 -219 4 -270 -10 -13 -38 -40 -62 -60 l-44 -36 34 42 c40 51 35
66 -8 23 -29 -28 -61 -42 -47 -20 4 6 -5 10 -19 10 -30 0 -33 15 -9 42 19 22
33 23 33 4 0 -8 5 -18 10 -21 14 -8 50 72 50 110 0 43 -34 148 -59 184 l-21
29 61 -14 c34 -8 69 -18 77 -23z m-338 4 c-7 -8 -20 -15 -29 -16 -9 0 6 -7 33
-14 68 -19 72 -26 46 -80 -22 -46 -61 -75 -101 -75 -16 0 -20 5 -16 20 3 13 0
20 -9 20 -30 0 -7 -108 33 -152 9 -10 12 -18 7 -18 -10 1 -27 13 -78 58 l-37
32 7 90 7 90 51 30 c56 32 108 42 86 15z m798 -34 c34 -42 46 -79 45 -137 0
-65 -6 -84 -26 -84 -8 0 -12 24 -12 74 0 85 -14 110 -57 104 -20 -3 -29 0 -34
14 -3 10 -10 16 -15 13 -12 -8 -11 1 3 24 9 15 19 18 47 13 20 -3 42 -12 49
-21z m-129 -7 c-24 -26 -24 -31 4 -30 38 2 34 -39 -7 -80 -57 -57 -64 -38 -40
101 4 25 10 30 34 30 29 0 29 0 9 -21z m213 16 c11 0 28 -20 44 -52 22 -44 25
-59 19 -102 -9 -69 -47 -131 -95 -156 -39 -20 -79 -29 -52 -12 20 13 24 52 5
52 -13 0 -13 3 -3 15 7 9 21 13 30 10 22 -7 30 19 30 97 0 34 -8 74 -20 103
-25 58 -25 59 3 51 12 -3 30 -6 39 -6z m127 -20 c15 0 14 -9 -14 -135 -8 -38
-15 -82 -15 -96 0 -16 -13 -40 -36 -63 -30 -31 -47 -39 -97 -47 -34 -6 -79 -7
-102 -3 -39 8 -38 8 29 15 85 9 140 44 174 109 20 39 23 56 19 120 -2 41 -8
84 -12 94 -7 17 -5 18 16 13 13 -4 30 -7 38 -7z m-446 -125 c-1 -38 -3 -95 -5
-125 -4 -73 25 -122 80 -138 22 -7 47 -12 56 -12 21 0 21 17 -1 23 -10 3 18 2
63 -1 85 -5 170 14 194 44 19 22 27 17 41 -23 31 -95 -5 -220 -82 -287 -46
-39 -399 -216 -432 -216 -23 0 -155 32 -285 70 -68 19 -225 91 -264 122 -14
10 -22 49 -38 171 -11 87 -20 162 -20 168 0 5 24 -3 52 -17 72 -36 195 -44
299 -19 41 10 83 22 93 27 56 29 108 117 127 212 13 68 23 78 78 74 l46 -3 -2
-70z m471 31 c-3 -21 -8 -35 -11 -32 -2 2 -1 20 3 40 3 21 8 35 11 32 2 -2 1
-20 -3 -40z m-995 -90 c23 -44 57 -66 94 -60 9 1 17 -3 17 -9 0 -6 7 -18 16
-28 15 -17 14 -18 -20 -24 -94 -18 -155 13 -196 100 l-19 40 37 11 c20 7 39
12 42 13 3 1 16 -19 29 -43z m616 22 c-3 -7 4 -27 15 -45 14 -24 29 -34 57
-39 21 -4 46 -12 55 -19 16 -11 16 -13 -8 -34 -23 -20 -28 -21 -77 -9 -56 14
-64 26 -81 121 -6 35 -5 37 18 37 16 0 24 -5 21 -12z m-19 -175 c27 -24 32
-33 20 -33 -10 0 -31 13 -47 29 -23 23 -29 38 -28 68 l1 38 8 -35 c5 -21 23
-48 46 -67z m-636 14 c11 -4 9 -6 -6 -6 -11 -1 -31 11 -45 26 l-24 27 30 -21
c17 -11 37 -23 45 -26z m215 -6 c-35 -14 -105 -22 -105 -12 0 9 38 16 100 19
22 1 23 0 5 -7z"/>
<path d="M1452 1295 c-79 -35 -117 -83 -76 -99 28 -11 81 -6 110 9 46 24 116
-1 166 -60 14 -16 17 -17 18 -4 0 31 -72 108 -142 152 -32 20 -34 20 -76 2z
m114 -50 l39 -35 -37 15 c-34 14 -41 13 -90 -6 -31 -12 -62 -18 -76 -14 l-25
6 23 24 c19 20 69 39 116 44 6 1 28 -15 50 -34z"/>
<path d="M812 1209 c-53 -9 -118 -36 -109 -46 3 -2 14 0 25 6 10 5 48 15 84
20 57 10 69 9 106 -9 22 -11 44 -24 47 -30 3 -5 11 -10 17 -10 7 0 7 5 -1 14
-9 11 -9 15 1 19 15 5 -76 48 -100 46 -9 -1 -41 -5 -70 -10z"/>
<path d="M1417 1145 c-40 -14 -77 -41 -77 -57 0 -5 13 0 30 12 55 39 86 44
120 20 17 -12 33 -20 36 -17 4 4 -29 31 -61 49 -6 4 -27 0 -48 -7z"/>
<path d="M1330 470 c-72 -47 -85 -58 -79 -65 10 -9 116 53 123 72 10 25 4 24
-44 -7z"/>
<path d="M1200 470 c0 -13 18 -22 24 -11 3 5 -1 11 -9 15 -8 3 -15 1 -15 -4z"/>
<path d="M1069 290 c-83 -44 -71 -81 29 -88 l59 -4 36 50 c19 28 33 53 30 56
-14 14 -120 4 -154 -14z"/>
<path d="M160 1158 c-39 -64 -80 -193 -74 -233 7 -47 5 -126 -6 -207 -13 -97
-12 -98 50 -183 27 -37 40 -66 45 -104 10 -71 40 -192 55 -222 19 -36 88 -129
128 -171 59 -62 59 -43 0 24 -72 82 -112 155 -137 248 -25 95 -36 163 -24 159
4 -2 31 -17 60 -34 49 -28 52 -32 74 -105 43 -147 146 -330 185 -330 9 0 1 16
-22 47 -50 65 -97 163 -128 264 -29 94 -30 103 -17 94 5 -3 12 -1 15 4 3 5 -3
11 -14 14 -12 3 -20 14 -20 26 0 12 -11 83 -25 159 -32 170 -35 201 -41 382
-5 159 -11 193 -25 145 -5 -16 -6 -87 -3 -157 4 -71 4 -128 1 -128 -3 0 -18 5
-33 10 -19 8 -30 7 -40 -1 -20 -16 -24 -10 -39 63 -12 61 -12 66 17 146 16 45
33 82 38 82 12 0 20 29 10 35 -5 3 -19 -9 -30 -27z m78 -330 c6 -6 12 -24 12
-39 0 -29 0 -29 -30 -14 -50 26 -69 20 -91 -30 -11 -25 -18 -51 -16 -58 3 -7
14 10 26 38 12 27 24 51 25 52 2 2 23 -8 48 -22 30 -17 48 -35 52 -51 9 -33 3
-39 -23 -24 -23 12 -61 -2 -61 -22 0 -8 6 -6 16 4 23 22 72 3 78 -32 13 -66
27 -182 23 -187 -17 -17 -185 126 -192 164 -18 105 -16 181 6 167 5 -3 9 3 9
12 0 10 10 28 22 41 18 19 28 22 53 17 16 -3 36 -11 43 -16z"/>
<path d="M1787 550 c-23 -133 -114 -402 -168 -497 -33 -60 -18 -74 19 -19 69
101 166 414 160 513 l-3 48 -8 -45z"/>
<path d="M2 41 c3 -26 32 -50 44 -38 5 4 -5 20 -20 35 l-28 27 4 -24z"/>
</g>
</svg>
