<?xml version="1.0" standalone="no"?>
<!DOCTYPE svg PUBLIC "-//W3C//DTD SVG 20010904//EN"
 "http://www.w3.org/TR/2001/REC-SVG-20010904/DTD/svg10.dtd">
<svg version="1.0" xmlns="http://www.w3.org/2000/svg"
 width="500.000000pt" height="500.000000pt" viewBox="0 0 500.000000 500.000000"
 preserveAspectRatio="xMidYMid meet">
<metadata>
Created by potrace 1.11, written by Peter Selinger 2001-2013
</metadata>
<g transform="translate(0.000000,500.000000) scale(0.100000,-0.100000)"
fill="#000000" stroke="none">
<path d="M835 4370 c-1 -3 -1 -500 0 -1105 l2 -1100 22 -79 c94 -338 364 -576
701 -621 53 -7 1396 -8 1455 -1 267 32 504 194 637 437 32 57 74 180 83 239 4
25 9 52 10 60 2 8 4 173 4 365 l1 351 228 1 c268 0 295 4 378 46 64 34 115 80
158 146 65 97 69 124 70 521 2 375 -4 434 -45 515 -51 97 -133 169 -237 207
-57 21 -62 21 -1760 22 -937 0 -1705 -1 -1707 -4z m3331 -721 c0 -170 -2 -310
-5 -310 -3 -1 -97 -3 -208 -4 l-203 -2 0 312 0 312 208 0 208 1 0 -309z"/>
<path d="M869 1040 l-36 -5 0 -202 c0 -112 3 -204 6 -204 3 -1 753 -2 1666 -3
l1661 -1 0 207 c0 203 0 208 -20 209 -117 3 -3250 3 -3277 -1z"/>
</g>
</svg>
